<svg width="32" height="33" viewBox="0 0 32 33" fill="none" xmlns="http://www.w3.org/2000/svg">
<path d="M15.9375 30.5781C23.704 30.5781 30 24.2821 30 16.5156C30 8.74913 23.704 2.45312 15.9375 2.45312C8.171 2.45312 1.875 8.74913 1.875 16.5156C1.875 24.2821 8.171 30.5781 15.9375 30.5781Z" fill="white" stroke="#363F46" stroke-width="2.42578" stroke-linecap="round"/>
<path d="M8.30304 10.5771C8.30304 10.5771 6.3584 12.7709 6.3584 16.6039C6.3584 20.4369 8.30304 22.5423 8.30304 22.5423" fill="white"/>
<path d="M8.30304 10.5771C8.30304 10.5771 6.3584 12.7709 6.3584 16.6039C6.3584 20.4369 8.30304 22.5423 8.30304 22.5423" stroke="#FC7E0F" stroke-width="2.42578" stroke-linecap="round"/>
<path d="M23.7959 10.5771C23.7959 10.5771 25.7405 12.7709 25.7405 16.6039C25.7405 20.4369 23.7959 22.5423 23.7959 22.5423" fill="white"/>
<path d="M23.7959 10.5771C23.7959 10.5771 25.7405 12.7709 25.7405 16.6039C25.7405 20.4369 23.7959 22.5423 23.7959 22.5423" stroke="#FC7E0F" stroke-width="2.42578" stroke-linecap="round"/>
<path d="M20.6943 13.1406C20.6943 13.1406 22.0042 14.7719 21.972 16.596C21.9318 18.7897 20.7104 19.9951 20.7104 19.9951" fill="white"/>
<path d="M20.6943 13.1406C20.6943 13.1406 22.0042 14.7719 21.972 16.596C21.9318 18.7897 20.7104 19.9951 20.7104 19.9951" stroke="#FC7E0F" stroke-width="2.42578" stroke-linecap="round"/>
<path d="M11.3408 13.1406C11.3408 13.1406 10.0309 14.7719 10.0631 16.596C10.1033 18.7897 11.3247 19.9951 11.3247 19.9951" fill="white"/>
<path d="M11.3408 13.1406C11.3408 13.1406 10.0309 14.7719 10.0631 16.596C10.1033 18.7897 11.3247 19.9951 11.3247 19.9951" stroke="#FC7E0F" stroke-width="2.42578" stroke-linecap="round"/>
<path d="M15.9358 18.6987C17.1413 18.6987 18.1186 17.7214 18.1186 16.5158C18.1186 15.3103 17.1413 14.333 15.9358 14.333C14.7302 14.333 13.7529 15.3103 13.7529 16.5158C13.7529 17.7214 14.7302 18.6987 15.9358 18.6987Z" fill="#363F46"/>
<path d="M16.3047 18.5548L14.7562 18.1386L12.1777 27.7705L13.7262 28.1866L16.3047 18.5548Z" fill="#363F46"/>
<path d="M15.7051 18.5421L17.2467 18.1328L19.8116 27.7715L18.2699 28.1808L15.7051 18.5421Z" fill="#363F46"/>
<path d="M14.2725 23.7399L14.8455 23.1533L18.8155 27.021L18.2425 27.6077L14.2725 23.7399Z" fill="#363F46"/>
<path d="M17.6351 23.7607L17.1166 23.2354L13.1807 27.1441L13.6991 27.6694L17.6351 23.7607Z" fill="#363F46"/>
</svg>
